<?xml version="1.0" standalone="no"?>
<!DOCTYPE svg PUBLIC "-//W3C//DTD SVG 20010904//EN"
 "http://www.w3.org/TR/2001/REC-SVG-20010904/DTD/svg10.dtd">
<svg version="1.0" xmlns="http://www.w3.org/2000/svg"
 width="1040.000000pt" height="1040.000000pt" viewBox="0 0 1040.000000 1040.000000"
 preserveAspectRatio="xMidYMid meet">
<metadata>
Created by potrace 1.14, written by Peter Selinger 2001-2017
</metadata>
<g transform="translate(0.000000,1040.000000) scale(0.100000,-0.100000)"
fill="#000000" stroke="none">
<path d="M4730 7220 l0 -490 988 -2 987 -3 3 -1972 2 -1973 490 0 490 0 0
2465 0 2465 -1480 0 -1480 0 0 -490z"/>
<path d="M3740 6235 l0 -495 -495 0 -495 0 0 -1480 0 -1480 495 0 495 0 0
1480 0 1480 490 0 490 0 0 495 0 495 -490 0 -490 0 0 -495z"/>
</g>
</svg>
